<?xml version="1.0" encoding="UTF-8" standalone="no"?>
<!-- Created with Inkscape (http://www.inkscape.org/) -->

<svg
   xmlns:dc="http://purl.org/dc/elements/1.1/"
   xmlns:cc="http://creativecommons.org/ns#"
   xmlns:rdf="http://www.w3.org/1999/02/22-rdf-syntax-ns#"
   xmlns:svg="http://www.w3.org/2000/svg"
   xmlns="http://www.w3.org/2000/svg"
   xmlns:sodipodi="http://sodipodi.sourceforge.net/DTD/sodipodi-0.dtd"
   xmlns:inkscape="http://www.inkscape.org/namespaces/inkscape"
   width="250mm"
   height="250mm"
   viewBox="0 0 250 250"
   version="1.1"
   id="svg8"
   inkscape:version="0.92.4 5da689c313, 2019-01-14"
   sodipodi:docname="logo.svg"
   enable-background="new">
  <defs
     id="defs2" />
  <sodipodi:namedview
     id="base"
     pagecolor="#000000"
     bordercolor="#666666"
     borderopacity="1.0"
     inkscape:pageopacity="0"
     inkscape:pageshadow="2"
     inkscape:zoom="0.38523333"
     inkscape:cx="472.44094"
     inkscape:cy="57.108246"
     inkscape:document-units="mm"
     inkscape:current-layer="layer1"
     showgrid="false" />
  <metadata
     id="metadata5">
    <rdf:RDF>
      <cc:Work
         rdf:about="">
        <dc:format>image/svg+xml</dc:format>
        <dc:type
           rdf:resource="http://purl.org/dc/dcmitype/StillImage" />
        <dc:title />
      </cc:Work>
    </rdf:RDF>
  </metadata>
  <g
     inkscape:label="Layer 1"
     inkscape:groupmode="layer"
     id="layer1"
     transform="translate(0,-47)">
    <g
       aria-label=""
       style="font-style:normal;font-weight:normal;font-size:326.65820312px;line-height:1.25;font-family:sans-serif;letter-spacing:0px;word-spacing:0px;display:none;fill:#0d1724;fill-opacity:1;stroke:none;stroke-width:17.39572144;stroke-miterlimit:4;stroke-dasharray:none;stroke-opacity:1;paint-order:stroke markers fill"
       id="text817-3-3"
       transform="matrix(0.57485396,0,0,0.57485396,58.434919,65.187595)">
      <path
         d="m 53.625172,167.10008 q -2.613265,0 -4.573215,-1.95995 -1.633291,-2.2866 -1.633291,-4.89987 0,-4.24656 6.533165,-6.85982 L 90.864207,138.68082 61.464969,87.722139 h -5.226531 q -8.819772,0 -8.819772,-6.859822 0,-6.533164 8.819772,-6.533164 h 37.565693 q 8.819769,0 8.819769,6.533164 0,6.859822 -8.819769,6.859822 h -16.33291 l 48.018759,76.764681 20.57946,-7.8398 q 9.14643,-2.93992 16.98623,-7.18648 7.8398,-4.57322 13.71964,-10.45306 5.87985,-5.87985 9.14643,-13.39299 3.26659,-7.8398 3.26659,-17.63954 0,-3.26658 -2.28661,-7.51314 -1.95995,-4.246557 -5.55319,-7.839798 -3.59324,-3.59324 -8.81977,-6.206505 -5.22653,-2.613266 -11.10638,-2.613266 -3.59324,0 -6.20651,-1.633291 -2.61326,-1.959949 -2.61326,-5.226531 0,-6.533164 8.81977,-6.533164 7.18648,0 14.37296,3.266582 7.51314,2.939923 13.39299,8.166455 5.87984,4.899873 9.47308,11.759695 3.9199,6.859823 3.9199,14.372963 0,15.67959 -6.2065,26.45931 -5.87985,10.77972 -16.00625,18.61952 -9.79975,7.51314 -22.53942,13.06633 -12.73967,5.22653 -26.13266,10.1264 -13.39298,4.57322 -26.13265,9.47309 -12.739673,4.89987 -22.866078,11.7597 -9.799746,6.53316 -16.006252,15.67959 -5.879847,9.47309 -5.879847,22.86607 0,11.10638 6.859822,17.63955 7.186481,6.53316 20.906125,6.53316 3.59324,0 6.206506,1.63329 2.613266,1.95995 2.613266,5.22653 0,6.53317 -8.819772,6.53317 -7.18648,0 -14.699619,-2.28661 -7.186481,-1.95995 -13.066328,-6.85982 -5.879848,-4.57322 -9.799746,-11.7597 -3.593241,-6.85982 -3.593241,-16.65957 0,-14.37296 4.573215,-24.82602 4.899873,-10.1264 13.066328,-17.31288 8.493114,-7.51314 19.926151,-12.73967 11.759695,-5.22654 25.15268,-10.12641 l -11.106377,-20.57947 -40.832276,15.6796 q -2.613265,0.97997 -4.573215,0.97997 z"
         style="font-style:normal;font-variant:normal;font-weight:normal;font-stretch:normal;font-family:Ubuntu;-inkscape-font-specification:Ubuntu;fill:#0d1724;fill-opacity:1;stroke:none;stroke-width:17.39572144;stroke-miterlimit:4;stroke-dasharray:none;stroke-opacity:1;paint-order:stroke markers fill"
         id="path838-6-5"
         inkscape:connector-curvature="0" />
    </g>
    <g
       aria-label=""
       style="font-style:normal;font-weight:normal;font-size:326.65820312px;line-height:1.25;font-family:sans-serif;letter-spacing:0px;word-spacing:0px;display:inline;fill:none;fill-opacity:1;stroke:#0d1724;stroke-width:52.18716812;stroke-miterlimit:4;stroke-dasharray:none;stroke-opacity:0.98039216;paint-order:stroke markers fill"
       id="text817"
       transform="matrix(0.57485397,0,0,0.57485397,53.143248,60.425092)">
      <path
         d="m 53.625172,167.10008 q -2.613265,0 -4.573215,-1.95995 -1.633291,-2.2866 -1.633291,-4.89987 0,-4.24656 6.533165,-6.85982 L 90.864207,138.68082 61.464969,87.722139 h -5.226531 q -8.819772,0 -8.819772,-6.859822 0,-6.533164 8.819772,-6.533164 h 37.565693 q 8.819769,0 8.819769,6.533164 0,6.859822 -8.819769,6.859822 h -16.33291 l 48.018759,76.764681 20.57946,-7.8398 q 9.14643,-2.93992 16.98623,-7.18648 7.8398,-4.57322 13.71964,-10.45306 5.87985,-5.87985 9.14643,-13.39299 3.26659,-7.8398 3.26659,-17.63954 0,-3.26658 -2.28661,-7.51314 -1.95995,-4.246557 -5.55319,-7.839798 -3.59324,-3.59324 -8.81977,-6.206505 -5.22653,-2.613266 -11.10638,-2.613266 -3.59324,0 -6.20651,-1.633291 -2.61326,-1.959949 -2.61326,-5.226531 0,-6.533164 8.81977,-6.533164 7.18648,0 14.37296,3.266582 7.51314,2.939923 13.39299,8.166455 5.87984,4.899873 9.47308,11.759695 3.9199,6.859823 3.9199,14.372963 0,15.67959 -6.2065,26.45931 -5.87985,10.77972 -16.00625,18.61952 -9.79975,7.51314 -22.53942,13.06633 -12.73967,5.22653 -26.13266,10.1264 -13.39298,4.57322 -26.13265,9.47309 -12.739673,4.89987 -22.866078,11.7597 -9.799746,6.53316 -16.006252,15.67959 -5.879847,9.47309 -5.879847,22.86607 0,11.10638 6.859822,17.63955 7.186481,6.53316 20.906125,6.53316 3.59324,0 6.206506,1.63329 2.613266,1.95995 2.613266,5.22653 0,6.53317 -8.819772,6.53317 -7.18648,0 -14.699619,-2.28661 -7.186481,-1.95995 -13.066328,-6.85982 -5.879848,-4.57322 -9.799746,-11.7597 -3.593241,-6.85982 -3.593241,-16.65957 0,-14.37296 4.573215,-24.82602 4.899873,-10.1264 13.066328,-17.31288 8.493114,-7.51314 19.926151,-12.73967 11.759695,-5.22654 25.15268,-10.12641 l -11.106377,-20.57947 -40.832276,15.6796 q -2.613265,0.97997 -4.573215,0.97997 z"
         style="font-style:normal;font-variant:normal;font-weight:normal;font-stretch:normal;font-family:Ubuntu;-inkscape-font-specification:Ubuntu;fill:none;fill-opacity:1;stroke:#0d1724;stroke-width:52.18716812;stroke-miterlimit:4;stroke-dasharray:none;stroke-opacity:0.98039216;paint-order:stroke markers fill"
         id="path838"
         inkscape:connector-curvature="0" />
    </g>
    <g
       aria-label=""
       style="font-style:normal;font-weight:normal;font-size:326.65820312px;line-height:1.25;font-family:sans-serif;letter-spacing:0px;word-spacing:0px;display:inline;fill:#c2e2e2;fill-opacity:0.98039216;stroke:#c2e2e2;stroke-width:10.43743353;stroke-miterlimit:4;stroke-dasharray:none;stroke-opacity:0.98039216;paint-order:stroke markers fill"
       id="text817-3"
       transform="matrix(0.57485396,0,0,0.57485396,53.143248,60.425093)">
      <path
         d="m 53.625172,167.10008 q -2.613265,0 -4.573215,-1.95995 -1.633291,-2.2866 -1.633291,-4.89987 0,-4.24656 6.533165,-6.85982 L 90.864207,138.68082 61.464969,87.722139 h -5.226531 q -8.819772,0 -8.819772,-6.859822 0,-6.533164 8.819772,-6.533164 h 37.565693 q 8.819769,0 8.819769,6.533164 0,6.859822 -8.819769,6.859822 h -16.33291 l 48.018759,76.764681 20.57946,-7.8398 q 9.14643,-2.93992 16.98623,-7.18648 7.8398,-4.57322 13.71964,-10.45306 5.87985,-5.87985 9.14643,-13.39299 3.26659,-7.8398 3.26659,-17.63954 0,-3.26658 -2.28661,-7.51314 -1.95995,-4.246557 -5.55319,-7.839798 -3.59324,-3.59324 -8.81977,-6.206505 -5.22653,-2.613266 -11.10638,-2.613266 -3.59324,0 -6.20651,-1.633291 -2.61326,-1.959949 -2.61326,-5.226531 0,-6.533164 8.81977,-6.533164 7.18648,0 14.37296,3.266582 7.51314,2.939923 13.39299,8.166455 5.87984,4.899873 9.47308,11.759695 3.9199,6.859823 3.9199,14.372963 0,15.67959 -6.2065,26.45931 -5.87985,10.77972 -16.00625,18.61952 -9.79975,7.51314 -22.53942,13.06633 -12.73967,5.22653 -26.13266,10.1264 -13.39298,4.57322 -26.13265,9.47309 -12.739673,4.89987 -22.866078,11.7597 -9.799746,6.53316 -16.006252,15.67959 -5.879847,9.47309 -5.879847,22.86607 0,11.10638 6.859822,17.63955 7.186481,6.53316 20.906125,6.53316 3.59324,0 6.206506,1.63329 2.613266,1.95995 2.613266,5.22653 0,6.53317 -8.819772,6.53317 -7.18648,0 -14.699619,-2.28661 -7.186481,-1.95995 -13.066328,-6.85982 -5.879848,-4.57322 -9.799746,-11.7597 -3.593241,-6.85982 -3.593241,-16.65957 0,-14.37296 4.573215,-24.82602 4.899873,-10.1264 13.066328,-17.31288 8.493114,-7.51314 19.926151,-12.73967 11.759695,-5.22654 25.15268,-10.12641 l -11.106377,-20.57947 -40.832276,15.6796 q -2.613265,0.97997 -4.573215,0.97997 z"
         style="font-style:normal;font-variant:normal;font-weight:normal;font-stretch:normal;font-family:Ubuntu;-inkscape-font-specification:Ubuntu;fill:#c2e2e2;fill-opacity:0.98039216;stroke:#c2e2e2;stroke-width:10.43743353;stroke-miterlimit:4;stroke-dasharray:none;stroke-opacity:0.98039216;paint-order:stroke markers fill"
         id="path838-6"
         inkscape:connector-curvature="0" />
    </g>
  </g>
</svg>
